Source: OWN
 
http://www.imdb.com/title/tt1588173/

Format                           : AVI
Format/Info                      : Audio Video Interleave
File size                        : 1.24 GiB
Duration                         : 1h 32mn
Overall bit rate                 : 1 921 Kbps
Writing library                  : VirtualDub build 35390/release

Video
ID                               : 0
Format                           : MPEG-4 Visual
Format profile                   : Advanced Simple@L5
Format settings, BVOP            : Yes
Format settings, QPel            : No
Format settings, GMC             : No warppoints
Format settings, Matrix          : Default (H.263)
Muxing mode                      : Packed bitstream
Codec ID                         : XVID
Codec ID/Hint                    : XviD
Duration                         : 1h 32mn
Bit rate                         : 1 784 Kbps
Width                            : 720 pixels
Height                           : 362 pixels
Display aspect ratio             : 1.989
Frame rate                       : 24.000 fps
Color space                      : YUV
Chroma subsampling               : 4:2:0
Bit depth                        : 8 bits
Scan type                        : Progressive
Bits/(Pixel*Frame)               : 0.285
Stream size                      : 1.15 GiB (93%)
Writing library                  : XviD 1.2.1 (UTC 2008-12-04)

Audio
ID                               : 1
Format                           : MPEG Audio
Format version                   : Version 1
Format profile                   : Layer 3
Mode                             : Joint stereo
Mode extension                   : MS Stereo
Codec ID                         : 55
Codec ID/Hint                    : MP3
Duration                         : 1h 32mn
Bit rate mode                    : Constant
Bit rate                         : 128 Kbps
Channel(s)                       : 2 channels
Sampling rate                    : 48.0 KHz
Stream size                      : 84.3 MiB (7%)
Alignment                        : Split accross interleaves
Interleave, duration             : 42 ms (1.00 video frame)
Interleave, preload duration     : 500 ms
Writing library                  : LAME3.98.2

Workdone:
The main reason for the readnfo is because the HDCAM has a focus issue threw the movie, isnt all that bad but noticeable. Next time we will make sure focus is set and lock. We did all kinds of filters to make it look nice without over darking with black to make good screenshots. Adjusted video lighting for best overall picture and for the audio it isnt all to bad... we just clean it up some. SO ENJOY!

 
http://www.shotpix.com/images/25300662334926365467.png 
http://www.shotpix.com/images/83464780742640949116.png 
http://www.shotpix.com/images/37599227219902271229.png 
http://www.shotpix.com/images/95284130058540634171.png